<?xml version="1.0" standalone="no"?>
<!DOCTYPE svg PUBLIC "-//W3C//DTD SVG 20010904//EN"
 "http://www.w3.org/TR/2001/REC-SVG-20010904/DTD/svg10.dtd">
<svg version="1.0" xmlns="http://www.w3.org/2000/svg"
 width="300.000000pt" height="200.000000pt" viewBox="0 0 300.000000 200.000000"
 preserveAspectRatio="xMidYMid meet">
<metadata>
Created by potrace 1.10, written by Peter Selinger 2001-2011
</metadata>
<g transform="translate(0.000000,200.000000) scale(0.100000,-0.100000)"
fill="#000000" stroke="none">
<path d="M210 1325 c0 -42 3 -55 15 -55 8 0 15 9 15 20 0 13 7 20 19 20 12 0
18 -7 17 -17 0 -10 7 -19 17 -21 15 -3 17 4 17 52 0 49 -2 56 -20 56 -13 0
-20 -7 -20 -20 0 -11 -7 -20 -15 -20 -8 0 -15 9 -15 20 0 11 -7 20 -15 20 -12
0 -15 -13 -15 -55z"/>
<path d="M320 1361 c0 -14 5 -19 15 -15 12 5 15 -3 15 -36 0 -34 3 -41 18 -38
13 2 16 11 14 36 -3 27 0 34 18 39 36 9 16 28 -33 31 -42 3 -47 1 -47 -17z"/>
<path d="M430 1325 c0 -42 3 -55 15 -55 10 0 15 10 15 26 0 21 3 24 13 15 10
-8 17 -7 25 1 9 9 12 6 12 -15 0 -17 5 -27 15 -27 12 0 15 13 15 55 0 59 -16
73 -42 36 -14 -20 -14 -20 -26 0 -24 38 -42 23 -42 -36z"/>
<path d="M560 1327 l0 -52 40 -1 c33 -1 40 2 40 17 0 14 -7 19 -25 19 -22 0
-25 4 -25 35 0 24 -5 35 -15 35 -11 0 -15 -13 -15 -53z"/>
<path d="M967 1362 c-22 -24 -21 -55 1 -75 23 -21 56 -22 72 -2 13 16 11 17
-30 19 -32 1 -36 40 -5 42 11 1 26 2 34 3 11 1 11 4 1 16 -17 20 -53 19 -73
-3z"/>
<path d="M1071 1362 c-11 -22 -5 -33 29 -50 l25 -12 -29 3 c-38 3 -46 -20 -10
-29 58 -15 86 37 32 61 -29 12 -31 21 -4 16 5 -1 16 1 25 4 13 5 14 7 1 15
-24 16 -59 11 -69 -8z"/>
<path d="M1183 1374 c-7 -3 -13 -16 -13 -29 0 -16 7 -25 25 -29 14 -4 25 -11
25 -16 0 -6 -9 -6 -24 0 -18 6 -26 5 -30 -5 -10 -28 68 -35 83 -7 12 22 3 37
-26 46 -28 9 -30 23 -3 22 10 -1 20 4 20 9 1 11 -38 17 -57 9z"/>
<path d="M1525 1030 l0 -290 285 0 285 0 0 290 0 290 -285 0 -285 0 0 -290z
m538 253 c3 -5 6 -117 8 -251 4 -234 3 -244 -16 -258 -17 -13 -58 -15 -252
-11 -128 2 -236 6 -239 10 -5 5 -9 448 -5 510 1 4 113 7 250 7 138 0 252 -3
254 -7z"/>
<path d="M1768 958 c-3 -102 -5 -113 -22 -116 -11 -3 -25 3 -32 13 -10 14 -15
14 -33 3 -12 -7 -21 -18 -21 -25 0 -20 42 -43 78 -43 74 0 92 35 92 181 l0 99
-30 0 -29 0 -3 -112z"/>
<path d="M1895 1045 c-48 -48 -25 -105 57 -139 44 -19 54 -32 38 -51 -16 -20
-55 -19 -74 0 -12 12 -20 14 -36 5 -11 -6 -20 -14 -20 -19 0 -20 44 -44 87
-48 62 -6 103 22 103 71 0 44 -22 71 -75 92 -31 12 -45 22 -45 36 0 25 27 34
48 15 15 -14 19 -14 40 3 l22 18 -26 21 c-37 29 -88 27 -119 -4z"/>
<path d="M2303 1294 c-24 -24 -25 -30 -20 -100 5 -63 3 -74 -10 -74 -31 0
-100 -49 -113 -80 -11 -26 -10 -36 1 -56 14 -27 85 -74 112 -74 13 0 15 -8 10
-49 -13 -109 22 -164 90 -142 19 7 52 25 73 40 l38 29 31 -24 c53 -40 100 -56
129 -42 33 14 50 66 41 124 -9 60 -10 57 35 72 40 14 100 71 100 97 0 26 -60
83 -100 97 -22 7 -40 15 -41 18 -1 3 2 26 6 52 8 55 -8 114 -36 129 -29 15
-74 2 -125 -37 l-45 -34 -22 21 c-27 25 -91 59 -112 59 -9 0 -28 -12 -42 -26z
m108 -35 c24 -18 46 -33 48 -35 1 -1 -9 -18 -23 -37 -19 -24 -38 -36 -71 -44
-24 -5 -47 -8 -50 -5 -9 10 -5 113 5 133 15 27 40 24 91 -12z m243 -10 c5 -20
6 -53 2 -74 l-7 -37 -45 7 c-33 5 -53 15 -74 38 -15 18 -26 36 -23 40 12 20
99 68 118 65 14 -2 23 -14 29 -39z m-165 -97 c-40 -4 -46 3 -24 28 l19 21 18
-23 c17 -23 17 -23 -13 -26z m80 -72 c17 -28 31 -57 31 -65 0 -8 -14 -37 -31
-65 -31 -50 -31 -50 -83 -50 -59 0 -70 8 -104 75 l-20 40 20 40 c34 67 45 75
104 75 52 0 52 0 83 -50z m-201 4 c-15 -26 -23 -32 -29 -22 -21 32 -7 55 33
57 16 1 15 -3 -4 -35z m260 28 c10 -7 10 -15 2 -37 -12 -31 -12 -32 -34 13
-16 30 -16 32 1 32 10 0 24 -4 31 -8z m-314 -55 c15 -40 15 -47 0 -83 -9 -21
-18 -41 -19 -42 -2 -2 -26 8 -54 23 -79 43 -79 80 -2 120 25 13 49 24 52 25 4
0 14 -19 23 -43z m406 23 c22 -11 47 -32 56 -45 16 -24 15 -27 -2 -46 -18 -20
-85 -59 -101 -59 -5 0 -14 19 -21 42 -11 34 -11 49 0 85 7 24 16 43 21 43 4 0
26 -9 47 -20z m-351 -136 l22 -37 -23 7 c-13 3 -28 6 -35 6 -8 0 -8 7 0 30 6
17 12 30 13 30 1 0 12 -16 23 -36z m271 -10 c0 -12 -22 -24 -46 -24 -11 0 -11
6 3 36 16 32 18 34 30 18 7 -10 13 -23 13 -30z m-208 -88 c15 -17 28 -34 28
-37 0 -9 -70 -55 -97 -63 -35 -11 -53 17 -53 83 0 32 2 60 5 63 14 14 92 -16
117 -46z m227 -27 c1 -22 -6 -46 -17 -60 l-19 -22 -45 22 c-25 12 -52 29 -61
39 -14 16 -13 20 12 48 18 20 43 34 72 40 50 11 56 3 58 -67z m-155 36 c-16
-24 -18 -25 -35 -9 -28 25 -23 34 16 34 l35 0 -16 -25z"/>
<path d="M2445 1055 c-32 -31 -31 -50 0 -81 26 -25 52 -26 83 -2 21 18 15 75
-10 92 -31 22 -45 20 -73 -9z m59 -11 c20 -8 21 -38 1 -54 -30 -25 -70 15 -45
45 14 17 21 18 44 9z"/>
<path d="M173 1183 c3 -32 13 -146 23 -255 l18 -196 106 -32 106 -32 101 32
102 31 6 42 c7 52 45 436 45 454 0 10 -55 13 -256 13 l-257 0 6 -57z m464 13
c1 -1 -8 -99 -20 -219 l-21 -218 -86 -26 -85 -26 -74 19 c-104 25 -108 31
-116 141 -3 51 -8 103 -10 115 -2 13 -6 57 -10 98 -3 41 -9 85 -12 97 -4 17 0
22 19 25 23 3 411 -2 415 -6z"/>
<path d="M407 1174 c-3 -4 -37 -8 -74 -9 -90 -4 -105 -21 -99 -114 3 -36 9
-78 14 -92 6 -14 9 -49 7 -77 -5 -68 17 -96 93 -118 31 -9 60 -22 64 -28 5 -8
8 -8 8 0 0 6 26 17 57 24 88 22 102 39 114 144 9 83 8 91 -11 111 l-20 21 25
24 c30 28 32 60 7 83 -14 13 -37 17 -88 17 -39 0 -75 5 -80 10 -6 6 -13 7 -17
4z m173 -48 c0 -4 0 -17 0 -31 l0 -25 -125 0 c-132 0 -131 0 -118 -48 6 -23 7
-24 121 -20 l114 3 -6 -65 c-3 -36 -6 -79 -6 -96 0 -30 -3 -32 -67 -50 -66
-19 -70 -19 -132 -2 -35 9 -65 18 -66 20 -2 2 -6 24 -10 51 l-7 47 35 0 c31 0
36 -3 39 -27 4 -34 50 -49 108 -33 38 10 40 13 40 50 l0 40 -110 0 -109 0 -5
33 c-3 17 -8 61 -11 97 l-6 65 160 -2 c89 -1 161 -4 161 -7z m-120 -226 c0 -4
-6 -13 -14 -19 -17 -14 -31 2 -22 24 5 15 36 10 36 -5z"/>
<path d="M853 1182 c4 -32 14 -145 24 -254 l17 -196 104 -32 104 -32 95 28
c52 16 99 31 103 34 5 3 18 100 30 215 11 116 22 229 25 252 l6 41 -257 0
-257 0 6 -56z m232 8 c-3 -5 -31 -10 -61 -10 -30 0 -54 -4 -54 -10 0 -5 -9
-10 -19 -10 -11 0 -23 -9 -26 -21 -5 -16 -10 -18 -21 -8 -14 12 -19 51 -7 62
11 11 195 8 188 -3z m225 -17 c-2 -73 -39 -405 -46 -412 -8 -6 -54 -21 -146
-47 -14 -4 -18 1 -18 19 0 21 6 25 45 30 51 7 100 30 108 50 3 7 11 80 18 161
9 105 10 152 2 164 -8 13 -27 17 -89 18 -72 1 -79 3 -82 23 -3 20 0 21 102 21
l106 0 0 -27z m-50 -61 c-1 -45 -27 -293 -32 -297 -2 -3 -31 -13 -64 -23 -57
-17 -62 -17 -123 0 -35 10 -65 19 -67 21 -2 2 -7 25 -10 50 l-7 47 32 0 c29 0
37 -10 32 -42 -1 -10 73 -29 90 -24 8 2 26 7 42 10 24 6 27 11 27 46 l0 40
-80 0 -80 0 0 35 0 35 84 0 84 0 4 30 5 30 -129 0 -128 0 0 35 0 34 160 0 160
0 0 -27z m-267 -76 c13 -4 16 -10 9 -23 -5 -10 -8 -23 -5 -29 2 -5 -14 -29
-36 -53 l-39 -42 -11 51 c-6 28 -11 71 -11 96 l0 45 38 -20 c20 -11 45 -22 55
-25z m141 -132 c8 -20 -1 -34 -20 -34 -8 0 -14 10 -14 25 0 28 24 34 34 9z
m-103 -144 c14 0 34 -9 44 -20 18 -20 17 -20 -7 -20 -47 0 -125 31 -138 55
-22 40 -2 48 38 15 20 -16 48 -30 63 -30z"/>
</g>
</svg>
